<svg width="115" height="24" viewBox="0 0 115 24" fill="none" xmlns="http://www.w3.org/2000/svg">
<path fill-rule="evenodd" clip-rule="evenodd" d="M30.5548 0.315254C29.9342 0.550936 30.5548 0.315254 29.9342 0.550936C29.5144 0.67088 29.7385 1.1209 29.9413 1.76749C34.8496 17.4157 25.9528 17.1718 16.4723 1.39836C15.7585 0.210752 16.2606 -0.0487809 9.27081 3.4457C8.37522 3.86494 6.63178 4.67657 5.39649 5.24931C-0.771469 8.10907 -0.374663 7.68768 0.482965 9.32027C6.56665 20.9011 15.5044 26.1055 24.3478 23.2165C32.5389 20.5408 35.2743 13.5544 32.4614 2.49395C31.7255 -0.399403 31.9732 -0.218277 30.5548 0.315254Z" fill="black"/>
<path d="M105.636 13.7653C105.636 12.8699 105.802 12.0839 106.135 11.4071C106.479 10.7304 106.943 10.2098 107.526 9.84543C108.109 9.48103 108.76 9.29883 109.479 9.29883C110.052 9.29883 110.572 9.41856 111.041 9.65803C111.52 9.89749 111.895 10.2202 112.166 10.6263V6.58146H114.838V18.1381H112.166V16.8887C111.916 17.3052 111.557 17.6383 111.088 17.8882C110.63 18.1381 110.093 18.263 109.479 18.263C108.76 18.263 108.109 18.0808 107.526 17.7164C106.943 17.3416 106.479 16.8159 106.135 16.1391C105.802 15.452 105.636 14.6607 105.636 13.7653ZM112.166 13.7809C112.166 13.1146 111.979 12.5888 111.604 12.2036C111.239 11.8184 110.791 11.6258 110.26 11.6258C109.729 11.6258 109.276 11.8184 108.901 12.2036C108.536 12.5784 108.354 13.099 108.354 13.7653C108.354 14.4316 108.536 14.9626 108.901 15.3583C109.276 15.7435 109.729 15.9361 110.26 15.9361C110.791 15.9361 111.239 15.7435 111.604 15.3583C111.979 14.973 112.166 14.4473 112.166 13.7809Z" fill="black"/>
<path d="M102.156 10.8762C102.468 10.3972 102.859 10.0224 103.328 9.75172C103.796 9.47062 104.317 9.33006 104.89 9.33006V12.1568H104.156C103.489 12.1568 102.989 12.3025 102.656 12.594C102.322 12.8751 102.156 13.3749 102.156 14.0933V18.1381H99.4842V9.42376H102.156V10.8762Z" fill="black"/>
<path d="M96.2202 8.51798C95.7516 8.51798 95.3662 8.38263 95.0641 8.11194C94.7725 7.83083 94.6267 7.48726 94.6267 7.08121C94.6267 6.66476 94.7725 6.32118 95.0641 6.05048C95.3662 5.76938 95.7516 5.62882 96.2202 5.62882C96.6785 5.62882 97.0535 5.76938 97.3451 6.05048C97.6472 6.32118 97.7982 6.66476 97.7982 7.08121C97.7982 7.48726 97.6472 7.83083 97.3451 8.11194C97.0535 8.38263 96.6785 8.51798 96.2202 8.51798ZM97.5482 9.42377V18.1381H94.8767V9.42377H97.5482Z" fill="black"/>
<path d="M86.9447 10.6575C87.1947 10.2515 87.554 9.92352 88.0227 9.67364C88.4914 9.42377 89.0278 9.29883 89.6319 9.29883C90.3505 9.29883 91.0015 9.48103 91.5847 9.84543C92.168 10.2098 92.6263 10.7304 92.9596 11.4071C93.3033 12.0839 93.4751 12.8699 93.4751 13.7653C93.4751 14.6607 93.3033 15.452 92.9596 16.1391C92.6263 16.8159 92.168 17.3416 91.5847 17.7164C91.0015 18.0808 90.3505 18.263 89.6319 18.263C89.0174 18.263 88.481 18.1433 88.0227 17.9038C87.5644 17.654 87.2051 17.326 86.9447 16.92V18.1381H84.2732V6.58146H86.9447V10.6575ZM90.7567 13.7653C90.7567 13.099 90.5692 12.5784 90.1943 12.2036C89.8298 11.8184 89.3767 11.6258 88.8351 11.6258C88.3039 11.6258 87.8508 11.8184 87.4759 12.2036C87.1113 12.5888 86.9291 13.1146 86.9291 13.7809C86.9291 14.4473 87.1113 14.973 87.4759 15.3583C87.8508 15.7435 88.3039 15.9361 88.8351 15.9361C89.3663 15.9361 89.8193 15.7435 90.1943 15.3583C90.5692 14.9626 90.7567 14.4316 90.7567 13.7653Z" fill="black"/>
<path d="M82.7851 15.8736V18.1381H81.4259C80.4572 18.1381 79.7021 17.9038 79.1605 17.4353C78.6189 16.9564 78.3481 16.1808 78.3481 15.1084V11.6414H77.2858V9.42376H78.3481V7.29984H81.0197V9.42376H82.7694V11.6414H81.0197V15.1396C81.0197 15.3999 81.0822 15.5873 81.2071 15.7018C81.3321 15.8164 81.5404 15.8736 81.8321 15.8736H82.7851Z" fill="black"/>
<path d="M75.9903 6.58146V18.1381H73.3187V6.58146H75.9903Z" fill="black"/>
<path d="M71.3998 9.42377V18.1381H68.7282V16.9512C68.4574 17.3364 68.0877 17.6488 67.619 17.8882C67.1607 18.1173 66.6504 18.2318 66.088 18.2318C65.4214 18.2318 64.8329 18.086 64.3226 17.7945C63.8122 17.4926 63.4164 17.0605 63.1352 16.4983C62.854 15.9361 62.7134 15.275 62.7134 14.5149V9.42377H65.3693V14.1557C65.3693 14.7388 65.5203 15.1917 65.8224 15.5144C66.1244 15.8372 66.5306 15.9986 67.041 15.9986C67.5617 15.9986 67.9731 15.8372 68.2752 15.5144C68.5772 15.1917 68.7282 14.7388 68.7282 14.1557V9.42377H71.3998Z" fill="black"/>
<path d="M51.6568 13.7653C51.6568 12.8699 51.8234 12.0839 52.1567 11.4071C52.5004 10.7304 52.9639 10.2098 53.5472 9.84543C54.1304 9.48103 54.7814 9.29883 55.5001 9.29883C56.1146 9.29883 56.651 9.42377 57.1092 9.67364C57.5779 9.92351 57.9373 10.2515 58.1872 10.6575V9.42377H60.8588V18.1381H58.1872V16.9043C57.9268 17.3104 57.5623 17.6383 57.0936 17.8882C56.6353 18.1381 56.0989 18.263 55.4844 18.263C54.7762 18.263 54.1304 18.0808 53.5472 17.7164C52.9639 17.3416 52.5004 16.8158 52.1567 16.1391C51.8234 15.452 51.6568 14.6607 51.6568 13.7653ZM58.1872 13.7809C58.1872 13.1146 57.9997 12.5888 57.6248 12.2036C57.2603 11.8184 56.8124 11.6258 56.2812 11.6258C55.75 11.6258 55.297 11.8184 54.922 12.2036C54.5575 12.5784 54.3752 13.099 54.3752 13.7653C54.3752 14.4316 54.5575 14.9626 54.922 15.3583C55.297 15.7435 55.75 15.9361 56.2812 15.9361C56.8124 15.9361 57.2603 15.7435 57.6248 15.3583C57.9997 14.973 58.1872 14.4473 58.1872 13.7809Z" fill="black"/>
<path d="M46.3297 15.6394L48.2201 9.42377H51.0635L47.9701 18.1381H44.6737L41.5803 9.42377H44.4393L46.3297 15.6394Z" fill="black"/>
</svg>
